<svg width="100" height="100" xmlns="http://www.w3.org/2000/svg" viewBox="0 0 100 100" preserveAspectRatio="none">
  <defs>
    <mask id="paint-edge-mask">
      <rect width="100" height="100" fill="white"/>
      <!-- Soft irregular paint edges with feathered effect -->
      <path d="M 0,0 
               L 98,2 
               L 99,5 
               L 100,8 
               L 100,92 
               L 99,95 
               L 98,98 
               L 2,100 
               L 0,98 
               L 0,2 Z" 
            fill="black" 
            opacity="0.2"/>
      <path d="M 1,1 
               L 97,3 
               L 98,6 
               L 99,10 
               L 99,90 
               L 98,94 
               L 97,97 
               L 3,99 
               L 1,97 
               L 1,3 Z" 
            fill="black" 
            opacity="0.15"/>
      <!-- Feathered edge details -->
      <circle cx="2" cy="5" r="1.5" fill="black" opacity="0.25"/>
      <circle cx="5" cy="2" r="1.2" fill="black" opacity="0.25"/>
      <circle cx="98" cy="95" r="1.5" fill="black" opacity="0.25"/>
      <circle cx="95" cy="98" r="1.2" fill="black" opacity="0.25"/>
      <circle cx="98" cy="5" r="1.3" fill="black" opacity="0.2"/>
      <circle cx="2" cy="95" r="1.3" fill="black" opacity="0.2"/>
      <!-- Additional irregular strokes -->
      <ellipse cx="3" cy="10" rx="1.5" ry="2" fill="black" opacity="0.2"/>
      <ellipse cx="97" cy="90" rx="1.5" ry="2" fill="black" opacity="0.2"/>
    </mask>
  </defs>
  <rect width="100" height="100" fill="white" mask="url(#paint-edge-mask)"/>
</svg>
