<svg width="100" height="100" xmlns="http://www.w3.org/2000/svg">
  <defs>
    <pattern id="wood-grain" x="0" y="0" width="20" height="100" patternUnits="userSpaceOnUse">
      <rect width="20" height="100" fill="#8b6f47"/>
      <path d="M0,0 Q5,10 10,20 T20,40 Q15,50 10,60 T0,80 Q5,90 10,100" stroke="#6b5230" stroke-width="1" fill="none" opacity="0.3"/>
      <path d="M10,0 Q15,10 20,20 T30,40 Q25,50 20,60 T10,80 Q15,90 20,100" stroke="#6b5230" stroke-width="0.8" fill="none" opacity="0.2"/>
      <ellipse cx="5" cy="30" rx="2" ry="8" fill="#a0825f" opacity="0.2"/>
      <ellipse cx="15" cy="70" rx="2" ry="8" fill="#a0825f" opacity="0.2"/>
    </pattern>
    <linearGradient id="wood-shine" x1="0%" y1="0%" x2="0%" y2="100%">
      <stop offset="0%" style="stop-color:#b89a6f;stop-opacity:0.3" />
      <stop offset="50%" style="stop-color:#8b6f47;stop-opacity:0.1" />
      <stop offset="100%" style="stop-color:#6b5230;stop-opacity:0.2" />
    </linearGradient>
  </defs>
  <rect width="100" height="100" fill="url(#wood-grain)"/>
  <rect width="100" height="100" fill="url(#wood-shine)"/>
</svg>

